<svg width="200" height="240" viewBox="0 0 200 240" fill="none" xmlns="http://www.w3.org/2000/svg">
<mask id="mask0_11_20" style="mask-type:alpha" maskUnits="userSpaceOnUse" x="6" y="6" width="185" height="220">
<path d="M171.681 96.2501C190.681 86.2497 199.681 97.2497 176.681 119.25L171.681 96.2501Z" fill="#414117" stroke="#414117"/>
<path d="M105.22 207.47C101.687 228.649 114.955 233.742 128.626 205L105.22 207.47Z" fill="#414117" stroke="#414117"/>
<path d="M171.691 94.2505C141.691 1.25072 36.6909 17.2506 26.6909 97.2505C8.68928 87.2508 -3.31025 97.2505 20.6889 123.251C20.6888 147.251 22.6889 188.251 75.691 207.251C77.691 217.251 97.691 237.251 97.691 209.251C152.691 213.251 196.69 177.251 171.691 94.2505Z" fill="url(#paint0_linear_11_20)" stroke="#404320"/>
<path d="M92.0194 45.6267C79.6861 88.2513 155.686 89.2513 146.019 34.6266C134.687 -13.7493 84.686 8.25121 92.0194 45.6267Z" fill="#E6E7E7" stroke="black"/>
<ellipse cx="115.059" cy="42.2432" rx="13.2521" ry="15.9022" transform="rotate(0.401502 115.059 42.2432)" fill="black"/>
<ellipse cx="114.283" cy="29.6655" rx="3" ry="9" transform="rotate(2.86449 114.283 29.6655)" fill="white"/>
<path fill-rule="evenodd" clip-rule="evenodd" d="M57.7497 72.1675C53.1001 67.5498 49.7031 61.2128 48.6822 53.2499C44.0671 17.2507 88.6987 -3.74929 102.682 42.2499C109.661 69.0908 95.0264 81.5233 79.1989 81.2486C76.4705 74.3884 68.897 68.9082 57.7497 72.1675Z" fill="#E6E7E7"/>
<path d="M48.6822 53.2499L49.1782 53.1863L48.6822 53.2499ZM57.7497 72.1675L57.3973 72.5222L57.6067 72.7302L57.89 72.6474L57.7497 72.1675ZM102.682 42.2499L103.166 42.1241L103.164 42.1142L103.161 42.1045L102.682 42.2499ZM79.1989 81.2486L78.7343 81.4333L78.8574 81.7427L79.1903 81.7485L79.1989 81.2486ZM48.1863 53.3135C49.2213 61.3869 52.6689 67.8264 57.3973 72.5222L58.102 71.8127C53.5312 67.2733 50.1848 61.0387 49.1782 53.1863L48.1863 53.3135ZM103.161 42.1045C99.6412 30.5275 94.1732 23.1 87.9682 19.0807C81.7559 15.0566 74.8525 14.4812 68.5534 16.5249C55.9729 20.6065 45.8513 35.1001 48.1863 53.3135L49.1782 53.1863C46.898 35.4005 56.7847 21.3944 68.862 17.4761C74.8919 15.5198 81.4798 16.0692 87.4246 19.92C93.3766 23.7755 98.7314 30.9726 102.204 42.3953L103.161 42.1045ZM79.1903 81.7485C87.2338 81.8881 95.0163 78.7974 99.8945 72.2153C104.775 65.6299 106.681 55.6427 103.166 42.1241L102.198 42.3757C105.662 55.698 103.74 65.3475 99.0911 71.6199C94.44 77.8956 86.9916 80.8838 79.2076 80.7486L79.1903 81.7485ZM79.6635 81.0638C78.2583 77.5306 75.6029 74.3464 71.8556 72.4663C68.1021 70.5831 63.29 70.0267 57.6094 71.6875L57.89 72.6474C63.3567 71.049 67.905 71.603 71.4072 73.3601C74.9155 75.1203 77.4111 78.1063 78.7343 81.4333L79.6635 81.0638Z" fill="black"/>
<path d="M59.6924 98.2494C91.6923 106.249 83.6924 61.2494 54.6924 73.2492L59.6924 98.2494Z" fill="#FFD601" stroke="#FFD601"/>
<ellipse cx="79.6919" cy="50.3027" rx="12.7799" ry="16.4777" transform="rotate(-21.8801 79.6919 50.3027)" fill="black"/>
<ellipse cx="72.2843" cy="39.6642" rx="3" ry="9" transform="rotate(-25.5681 72.2843 39.6642)" fill="white"/>
</mask>
<g mask="url(#mask0_11_20)">
<path d="M171.681 96.2501C190.681 86.2497 199.681 97.2497 176.681 119.25L171.681 96.2501Z" fill="#414117" stroke="#414117"/>
<path d="M105.22 207.47C101.687 228.649 114.955 233.742 128.626 205L105.22 207.47Z" fill="#414117" stroke="#414117"/>
<path d="M171.691 94.2505C141.691 1.25072 36.6909 17.2506 26.6909 97.2505C8.68928 87.2508 -3.31025 97.2505 20.6889 123.251C20.6888 147.251 22.6889 188.251 75.691 207.251C77.691 217.251 97.691 237.251 97.691 209.251C152.691 213.251 196.69 177.251 171.691 94.2505Z" fill="url(#paint1_linear_11_20)" stroke="#404320"/>
<g filter="url(#filter0_d_11_20)">
<path d="M92.0194 45.6267C79.6861 88.2513 155.686 89.2513 146.019 34.6266C134.687 -13.7493 84.686 8.25121 92.0194 45.6267Z" fill="#E6E7E7" stroke="black"/>
<ellipse cx="115.059" cy="42.2432" rx="13.2521" ry="15.9022" transform="rotate(0.401502 115.059 42.2432)" fill="black"/>
<ellipse cx="114.283" cy="29.6655" rx="3" ry="9" transform="rotate(2.86449 114.283 29.6655)" fill="white"/>
</g>
<g filter="url(#filter1_d_11_20)">
<path fill-rule="evenodd" clip-rule="evenodd" d="M57.7497 72.1675C53.1001 67.5498 49.7031 61.2128 48.6822 53.2499C44.0671 17.2507 88.6987 -3.74929 102.682 42.2499C109.661 69.0908 95.0264 81.5233 79.1989 81.2486C76.4705 74.3884 68.897 68.9082 57.7497 72.1675Z" fill="#E6E7E7"/>
<path d="M48.6822 53.2499L49.1782 53.1863L48.6822 53.2499ZM57.7497 72.1675L57.3973 72.5222L57.6067 72.7302L57.89 72.6474L57.7497 72.1675ZM102.682 42.2499L103.166 42.1241L103.164 42.1142L103.161 42.1045L102.682 42.2499ZM79.1989 81.2486L78.7343 81.4333L78.8574 81.7427L79.1903 81.7485L79.1989 81.2486ZM48.1863 53.3135C49.2213 61.3869 52.6689 67.8264 57.3973 72.5222L58.102 71.8127C53.5312 67.2733 50.1848 61.0387 49.1782 53.1863L48.1863 53.3135ZM103.161 42.1045C99.6412 30.5275 94.1732 23.1 87.9682 19.0807C81.7559 15.0566 74.8525 14.4812 68.5534 16.5249C55.9729 20.6065 45.8513 35.1001 48.1863 53.3135L49.1782 53.1863C46.898 35.4005 56.7847 21.3944 68.862 17.4761C74.8919 15.5198 81.4798 16.0692 87.4246 19.92C93.3766 23.7755 98.7314 30.9726 102.204 42.3953L103.161 42.1045ZM79.1903 81.7485C87.2338 81.8881 95.0163 78.7974 99.8945 72.2153C104.775 65.6299 106.681 55.6427 103.166 42.1241L102.198 42.3757C105.662 55.698 103.74 65.3475 99.0911 71.6199C94.44 77.8956 86.9916 80.8838 79.2076 80.7486L79.1903 81.7485ZM79.6635 81.0638C78.2583 77.5306 75.6029 74.3464 71.8556 72.4663C68.1021 70.5831 63.29 70.0267 57.6094 71.6875L57.89 72.6474C63.3567 71.049 67.905 71.603 71.4072 73.3601C74.9155 75.1203 77.4111 78.1063 78.7343 81.4333L79.6635 81.0638Z" fill="black"/>
</g>
<path d="M59.6924 98.2494C91.6923 106.249 83.6924 61.2494 54.6924 73.2492L59.6924 98.2494Z" fill="#FFD600" stroke="#FFD600"/>
<ellipse cx="79.6919" cy="50.3027" rx="12.7799" ry="16.4777" transform="rotate(-21.8801 79.6919 50.3027)" fill="black"/>
<ellipse cx="72.2843" cy="39.6642" rx="3" ry="9" transform="rotate(-25.5681 72.2843 39.6642)" fill="white"/>
<path d="M59.6714 98.2493C91.6714 106.249 83.6714 61.2493 54.6714 73.2491" stroke="black" stroke-linecap="round"/>
<path d="M80.6928 84.2476C95.6928 81.2476 103.693 78.2476 126.693 85.8907C124.324 92.6584 128.64 98.1956 135.691 99.41C119.696 228.247 64.6963 196.247 71.6928 99.2475C75.6928 100.248 82.6928 92.2476 80.6928 84.2476Z" fill="black"/>
<path d="M135.691 75.2476C130.709 78.8459 127.872 82.5209 126.693 85.8907M142.692 99.2475C140.182 99.7495 137.813 99.7755 135.691 99.41M126.693 85.8907C103.693 78.2476 95.6928 81.2476 80.6928 84.2476C82.6928 92.2476 75.6928 100.248 71.6928 99.2475C64.6963 196.248 119.696 228.247 135.691 99.41M126.693 85.8907C124.324 92.6584 128.64 98.1956 135.691 99.41" stroke="black"/>
<mask id="mask1_11_20" style="mask-type:alpha" maskUnits="userSpaceOnUse" x="70" y="74" width="73" height="111">
<path d="M80.6928 84.2476C95.6928 81.2476 103.693 78.2476 126.693 85.8907C124.324 92.6584 128.64 98.1956 135.691 99.41C119.696 228.247 64.6963 196.247 71.6928 99.2475C75.6928 100.248 82.6928 92.2476 80.6928 84.2476Z" fill="black"/>
<path d="M135.691 75.2476C130.709 78.8459 127.872 82.5209 126.693 85.8907M142.692 99.2475C140.182 99.7495 137.813 99.7755 135.691 99.41M126.693 85.8907C103.693 78.2476 95.6928 81.2476 80.6928 84.2476C82.6928 92.2476 75.6928 100.248 71.6928 99.2475C64.6963 196.248 119.696 228.247 135.691 99.41M126.693 85.8907C124.324 92.6584 128.64 98.1956 135.691 99.41" stroke="black"/>
</mask>
<g mask="url(#mask1_11_20)">
<path d="M98.6704 133.251C103.004 127.584 118.67 131.25 125.67 194.251L70.6704 189.25C73.6704 169.917 78.6704 117.25 98.6704 133.251Z" fill="#F15C5A" stroke="#F15C5A"/>
<path d="M95.6875 89.2483C92.6875 96.2483 86.2875 94.0483 84.6875 81.2483L121.687 79.2483C115.687 91.2483 103.687 98.2483 95.6875 89.2483Z" fill="#EEEEEE" stroke="#EEEEEE"/>
<path d="M75.6846 160.253C81.6846 157.253 86.6846 161.253 82.6846 174.253L75.6846 160.253Z" fill="#EEEEEE" stroke="#EEEEEE"/>
<path d="M103.685 175.254C98.6846 170.254 96.0846 169.254 89.6846 181.254L93.6846 186.254L110.685 185.254L112.685 174.254C109.685 170.254 105.685 168.254 103.685 175.254Z" fill="#EEEEEE" stroke="#EEEEEE"/>
</g>
<path d="M135.691 75.2476C130.709 78.8459 127.872 82.5209 126.693 85.8907M142.692 99.2475C140.182 99.7495 137.813 99.7755 135.691 99.41M126.693 85.8907C103.693 78.2476 95.6928 81.2476 80.6928 84.2476C82.6928 92.2476 76 98.5 71.6928 99.2475C64.6963 196.248 119.696 228.247 135.691 99.41M126.693 85.8907C124.324 92.6584 128.64 98.1956 135.691 99.41" stroke="black" stroke-linecap="round"/>
</g>
<defs>
<filter id="filter0_d_11_20" x="89.1621" y="6.32434" width="65.2095" height="78.8674" filterUnits="userSpaceOnUse" color-interpolation-filters="sRGB">
<feFlood flood-opacity="0" result="BackgroundImageFix"/>
<feColorMatrix in="SourceAlpha" type="matrix" values="0 0 0 0 0 0 0 0 0 0 0 0 0 0 0 0 0 0 127 0" result="hardAlpha"/>
<feOffset dx="3" dy="4"/>
<feGaussianBlur stdDeviation="2"/>
<feComposite in2="hardAlpha" operator="out"/>
<feColorMatrix type="matrix" values="0 0 0 0 0 0 0 0 0 0 0 0 0 0 0 0 0 0 0.25 0"/>
<feBlend mode="normal" in2="BackgroundImageFix" result="effect1_dropShadow_11_20"/>
<feBlend mode="normal" in="SourceGraphic" in2="effect1_dropShadow_11_20" result="shape"/>
</filter>
<filter id="filter1_d_11_20" x="45.0491" y="9.57402" width="76.7206" height="85.979" filterUnits="userSpaceOnUse" color-interpolation-filters="sRGB">
<feFlood flood-opacity="0" result="BackgroundImageFix"/>
<feColorMatrix in="SourceAlpha" type="matrix" values="0 0 0 0 0 0 0 0 0 0 0 0 0 0 0 0 0 0 127 0" result="hardAlpha"/>
<feOffset dx="7" dy="4"/>
<feGaussianBlur stdDeviation="4.9"/>
<feComposite in2="hardAlpha" operator="out"/>
<feColorMatrix type="matrix" values="0 0 0 0 0 0 0 0 0 0 0 0 0 0 0 0 0 0 0.25 0"/>
<feBlend mode="normal" in2="BackgroundImageFix" result="effect1_dropShadow_11_20"/>
<feBlend mode="normal" in="SourceGraphic" in2="effect1_dropShadow_11_20" result="shape"/>
</filter>
<linearGradient id="paint0_linear_11_20" x1="92.8727" y1="30.6809" x2="93.6901" y2="235.251" gradientUnits="userSpaceOnUse">
<stop offset="0.579589" stop-color="#FFD600"/>
<stop offset="0.943989" stop-color="#BD9400"/>
</linearGradient>
<linearGradient id="paint1_linear_11_20" x1="92.8727" y1="30.6809" x2="93.6901" y2="235.251" gradientUnits="userSpaceOnUse">
<stop offset="0.348958" stop-color="#FFD600"/>
<stop offset="0.932861" stop-color="#C2912E"/>
</linearGradient>
</defs>
</svg>
